<?xml version="1.0" encoding="utf-8"?>
<!-- Svg Vector Icons : http://www.onlinewebfonts.com/icon -->
<!DOCTYPE svg PUBLIC "-//W3C//DTD SVG 1.1//EN" "http://www.w3.org/Graphics/SVG/1.1/DTD/svg11.dtd">
<svg version="1.1" xmlns="http://www.w3.org/2000/svg" xmlns:xlink="http://www.w3.org/1999/xlink" x="0px" y="0px" viewBox="0 0 1000 1000" enable-background="new 0 0 1000 1000" xml:space="preserve">
<metadata> Svg Vector Icons : http://www.onlinewebfonts.com/icon </metadata>
<g><g transform="translate(0.000000,512.000000) scale(0.100000,-0.100000)"><path d="M4733,5010.3c-1065.9-135.9-1908-909-2135.7-1959.6c-47.8-218.2-47.8-748.3,0-954.9c109.1-486.1,311.9-866.9,643-1215.2c283.2-294.7,618.1-507.1,998.9-631.5c905.2-296.6,1877.3-47.8,2537.6,646.8c258.3,275.6,434.4,568.4,549.2,920.5c292.8,891.8,47.8,1863.9-633.4,2516.5c-348.3,333-740.6,539.7-1215.2,643C5339.7,5004.6,4867,5027.6,4733,5010.3z"/><path d="M1642.4-1123C915.2-1228.3,323.9-1779.4,144-2518.1c-24.9-103.3-30.6-302.3-36.4-1190.3L100-4776.3h4899h4901v993.2c0,1087-7.7,1180.7-112.9,1490.8c-164.6,476.5-585.6,899.4-1067.8,1075.5c-306.2,109.1-380.8,114.8-1814.2,114.8H5603.8l-300.4-300.4L5001-1704.8l-302.4,302.4L4398.1-1102l-1320.4-1.9C2350.5-1105.8,1705.6-1113.5,1642.4-1123z M5311-2952.5l300.4-1201.8l-304.3-306.2L5001-4766.7l-306.2,306.2l-304.3,306.2l300.4,1201.8c164.6,660.2,304.3,1199.9,310,1199.9S5146.4-2292.3,5311-2952.5z"/></g></g>
</svg>